<svg xmlns="http://www.w3.org/2000/svg" viewBox="0 0 1180 360" width="1180" height="360"><defs>
<linearGradient id="hh_n" x1="0" y1="0" x2="1" y2="1"><stop offset="0" stop-color="#26487511"/></linearGradient>
<linearGradient id="hh_navy" x1="0.1" y1="0" x2="0.9" y2="1"><stop offset="0" stop-color="#244871"/><stop offset="1" stop-color="#0d1a2e"/></linearGradient>
<linearGradient id="hh_blue" x1="0" y1="0" x2="1" y2="1"><stop offset="0" stop-color="#7ab2ff"/><stop offset="1" stop-color="#2563eb"/></linearGradient>
<linearGradient id="hh_bright" x1="0" y1="1" x2="0.2" y2="0"><stop offset="0" stop-color="#2f88ff"/><stop offset="1" stop-color="#8ec8ff"/></linearGradient></defs><g transform="translate(28,46) scale(0.52)">
  <path d="M160 44 H352 A104 104 0 0 1 456 148 V312 A104 104 0 0 1 352 416 H236 L150 484 L162 416 A104 104 0 0 1 56 312 V148 A104 104 0 0 1 160 44 Z" fill="url(#hh_navy)"/>

    <rect x="132" y="356" width="248" height="14" rx="7" fill="#cfe1fb"/>
    <rect x="140" y="278" width="66" height="82" rx="16" fill="#9cc6ff"/>
    <rect x="223" y="228" width="66" height="132" rx="16" fill="url(#hh_blue)"/>
    <rect x="306" y="168" width="66" height="192" rx="16" fill="url(#hh_bright)"/></g><text x="312" y="244" text-anchor="start" font-family="Poppins, sans-serif" font-weight="600" font-size="150" letter-spacing="0"><tspan fill="#0f172a">FinChat</tspan><tspan fill="#2f88ff">.ca</tspan></text></svg>