<svg xmlns="http://www.w3.org/2000/svg" viewBox="0 0 512 512" width="512" height="512"><defs>
<linearGradient id="sic_n" x1="0" y1="0" x2="1" y2="1"><stop offset="0" stop-color="#26487511"/></linearGradient>
<linearGradient id="sic_navy" x1="0.1" y1="0" x2="0.9" y2="1"><stop offset="0" stop-color="#244871"/><stop offset="1" stop-color="#0d1a2e"/></linearGradient>
<linearGradient id="sic_blue" x1="0" y1="0" x2="1" y2="1"><stop offset="0" stop-color="#7ab2ff"/><stop offset="1" stop-color="#2563eb"/></linearGradient>
<linearGradient id="sic_bright" x1="0" y1="1" x2="0.2" y2="0"><stop offset="0" stop-color="#2f88ff"/><stop offset="1" stop-color="#8ec8ff"/></linearGradient></defs>
  <path d="M160 44 H352 A104 104 0 0 1 456 148 V312 A104 104 0 0 1 352 416 H236 L150 484 L162 416 A104 104 0 0 1 56 312 V148 A104 104 0 0 1 160 44 Z" fill="url(#sic_navy)"/>

    <rect x="132" y="356" width="248" height="14" rx="7" fill="#cfe1fb"/>
    <rect x="140" y="278" width="66" height="82" rx="16" fill="#9cc6ff"/>
    <rect x="223" y="228" width="66" height="132" rx="16" fill="url(#sic_blue)"/>
    <rect x="306" y="168" width="66" height="192" rx="16" fill="url(#sic_bright)"/></svg>