<svg xmlns="http://www.w3.org/2000/svg" viewBox="0 0 512 512" fill="none">
  <defs>
    <linearGradient id="bg" x1="0" y1="0" x2="1" y2="1">
      <stop offset="0%" stop-color="#1e3a5f"/>
      <stop offset="100%" stop-color="#0f172a"/>
    </linearGradient>
    <linearGradient id="accent" x1="0" y1="0" x2="1" y2="1">
      <stop offset="0%" stop-color="#60a5fa"/>
      <stop offset="100%" stop-color="#2563eb"/>
    </linearGradient>
  </defs>
  <!-- Rounded square background -->
  <rect width="512" height="512" rx="96" fill="url(#bg)"/>
  <!-- Chat bubble outline -->
  <path d="M128 148h256a44 44 0 0 1 44 44v144a44 44 0 0 1-44 44H240l-64 56v-56h-48a44 44 0 0 1-44-44V192a44 44 0 0 1 44-44z" fill="url(#accent)" fill-opacity="0.12" stroke="url(#accent)" stroke-width="5"/>
  <!-- Upward trend line inside bubble -->
  <polyline points="184,316 224,280 272,296 320,244 368,220" fill="none" stroke="#60a5fa" stroke-width="8" stroke-linecap="round" stroke-linejoin="round"/>
  <!-- Arrow tip at end of trend -->
  <polyline points="352,218 370,218 370,236" fill="none" stroke="#60a5fa" stroke-width="6" stroke-linecap="round" stroke-linejoin="round"/>
</svg>
